<?xml version="1.0" encoding="UTF-8"?>
<svg id="Layer_1" data-name="Layer 1" xmlns="http://www.w3.org/2000/svg" viewBox="0 0 1920 1080">
  <defs>
    <style>
      .cls-1 {
        fill: #1f2021;
      }
    </style>
  </defs>
  <g>
    <polygon class="cls-1" points="640.79 407.06 561.72 407.06 561.72 327.41 537.01 327.41 537.01 518.1 561.72 518.1 561.72 428.57 640.79 428.57 640.79 518.1 665.49 518.1 665.49 327.41 640.79 327.41 640.79 407.06"/>
    <path class="cls-1" d="M758.83,327.41l-61.34,190.69h25l18.17-57.84h69.19l17.86,57.84h26.16l-61.91-190.69h-33.14Zm44.17,110.65h-55.36l8.28-26.35c6.69-21.22,12.79-42.15,18.89-64.24h1.16c5.82,22.09,12.21,43.02,18.89,64.24l8.13,26.35Z"/>
    <polygon class="cls-1" points="850.29 348.06 913.37 348.06 913.37 518.1 937.79 518.1 937.79 348.06 1000.86 348.06 1000.86 327.41 850.29 327.41 850.29 348.06"/>
    <polygon class="cls-1" points="718.74 583.87 766.12 583.87 766.12 733.28 718.74 733.28 718.74 753.92 837.92 753.92 837.92 733.28 790.54 733.28 790.54 583.87 837.92 583.87 837.92 563.23 718.74 563.23 718.74 583.87"/>
    <polygon class="cls-1" points="883.71 753.92 908.13 753.92 908.13 668.75 986.62 668.75 986.62 648.11 908.13 648.11 908.13 583.87 1000.86 583.87 1000.86 563.23 883.71 563.23 883.71 753.92"/>
    <path class="cls-1" d="M452.31,474.61h-.73c-1.84-9.42-3.51-17.05-6.21-27.44l-18.02-70.92h-23.26l-18.6,70.92c-2.5,10.39-4.24,18.02-6.14,27.44h-1.54l-20.22-147.49h-27.32l29.07,190.98h30.64l24.43-101.39h1.37l7.94,31.21,17.01,70.18h30.23l27.91-190.98h-26.16l-20.39,147.49Zm-73.84,4.44s-.02,.1-.03,.15l-.02-.15h.05Z"/>
  </g>
  <g>
    <path class="cls-1" d="M1114.13,365.66c-5.16-14.17-.13-26.34,12.65-31,12.78-4.65,23.26,1.68,27.75,14.03,.44,1.22,.89,2.43,1.05,3.16l-35.13,12.79c3.38,9.01,11.2,15.62,21.63,11.82,9.22-3.35,10.42-10.88,9.96-14.85l5.74-2.09c.77,8.88-2.88,17.79-14.01,21.84-13.57,4.94-24.74-2.22-29.64-15.7Zm4.52-5.98l29.22-10.63c-2.88-7.91-10.45-12.74-19.58-9.42-8.61,3.13-12.21,11.63-9.64,20.05Z"/>
    <path class="cls-1" d="M1192.69,339.53l18.95,13.1,.17-.06,6.01-22.18,6.78-2.47-8.03,27.44,25.74,16.33-6.78,2.47-20.95-13.74-.17,.06-7.05,23.93-6.7,2.44,9.04-28.99-23.79-15.86,6.78-2.47Z"/>
    <path class="cls-1" d="M1284.65,376.01l8.32,22.87-5.65,2.06-21.74-59.74,5.65-2.06,2.59,7.13,.17-.06c.97-5.18,4.21-10.89,11.95-13.71,10.78-3.92,22.64,1.61,27.96,16.22,5.29,14.52-.25,26.38-11.03,30.31-7.74,2.82-13.74,.67-18.06-3.08l-.17,.06Zm-5.35-14.7c4.05,11.13,12.56,16.11,21.08,13.01,9.22-3.35,11.22-13.54,7.62-23.45-3.64-10-11.72-16.51-20.94-13.16-8.52,3.1-11.84,12.38-7.76,23.6Z"/>
    <path class="cls-1" d="M1346.24,318.07l22.63,62.18-5.65,2.06-22.63-62.18,5.65-2.06Z"/>
    <path class="cls-1" d="M1401.98,363.99c-5.03-13.83-.51-26.3,12.79-31.15,13.22-4.81,24.79,1.81,29.82,15.64,5,13.74,.39,26.25-12.82,31.06-13.3,4.84-24.79-1.81-29.79-15.55Zm36.7-13.35c-3.73-10.26-11.75-16.6-22.1-12.83-10.44,3.8-12.42,13.78-8.68,24.04,3.7,10.17,11.63,16.54,22.07,12.75,10.35-3.77,12.42-13.78,8.71-23.95Z"/>
    <path class="cls-1" d="M1483.38,337.39l3.29,9.04,.17-.06c.05-6.62,2.59-12.37,8.94-14.68,1.56-.57,2.73-.89,3.92-1.13l2.03,5.57c-1.02,.17-2.01,.44-2.79,.72-8.09,2.94-11.57,11.5-8.44,20.11l9.02,24.78-5.65,2.06-16.14-44.35,5.65-2.06Z"/>
    <path class="cls-1" d="M1545.98,363.71c-5.16-14.17-.13-26.34,12.65-31,12.78-4.65,23.26,1.68,27.75,14.03,.44,1.22,.89,2.43,1.05,3.16l-35.13,12.79c3.38,9.01,11.2,15.62,21.63,11.82,9.22-3.35,10.42-10.88,9.96-14.85l5.74-2.09c.77,8.88-2.88,17.79-14.01,21.84-13.57,4.94-24.74-2.22-29.64-15.7Zm4.52-5.98l29.22-10.63c-2.88-7.91-10.45-12.74-19.58-9.42-8.61,3.13-12.21,11.63-9.64,20.05Z"/>
    <path class="cls-1" d="M1101.63,477.82v24.34h-6.01v-63.58h6.01v7.59h.19c2.68-4.54,7.68-8.79,15.92-8.79,11.48,0,20.73,9.25,20.73,24.8s-9.25,24.71-20.73,24.71c-8.24,0-13.14-4.07-15.92-9.07h-.19Zm0-15.64c0,11.85,6.29,19.43,15.36,19.43,9.81,0,15.18-8.88,15.18-19.43s-5.37-19.53-15.18-19.53c-9.07,0-15.36,7.59-15.36,19.53Z"/>
    <path class="cls-1" d="M1162.06,438.58v9.62h.19c2.31-6.2,6.66-10.73,13.42-10.73,1.67,0,2.87,.09,4.07,.28v5.92c-1.02-.19-2.04-.28-2.87-.28-8.61,0-14.81,6.85-14.81,16.01v26.38h-6.01v-47.2h6.01Z"/>
    <path class="cls-1" d="M1193.8,462.73c0-15.08,8.88-24.8,22.49-24.8s21.29,9.53,21.29,22.67c0,1.3,0,2.59-.09,3.33h-37.39c.09,9.62,5.18,18.51,16.29,18.51,9.81,0,13.51-6.66,14.44-10.55h6.11c-2.31,8.61-8.79,15.73-20.64,15.73-14.44,0-22.49-10.55-22.49-24.89Zm6.29-4.07h31.1c0-8.42-5.46-15.55-15.18-15.55-9.16,0-15.46,6.76-15.92,15.55Z"/>
    <path class="cls-1" d="M1291.62,472.73c0,8.61-6.85,14.25-18.51,14.25-13.14,0-20.45-7.22-20.73-16.66h6.39c.37,6.48,4.53,11.38,14.44,11.38,9.07,0,12.12-4.17,12.12-8.79,0-6.94-7.03-7.68-13.6-9.25-8.7-2.13-17.49-4.35-17.49-13.51,0-7.68,6.11-12.68,16.75-12.68,12.22,0,18.05,6.57,18.88,14.34h-6.39c-.83-4.16-3.24-9.07-12.49-9.07-6.76,0-10.46,2.59-10.46,7.03,0,5.92,6.29,6.66,13.51,8.51,8.88,2.13,17.58,4.63,17.58,14.44Z"/>
    <path class="cls-1" d="M1305.96,462.18c0-15.08,8.88-24.8,22.49-24.8s21.29,9.53,21.29,22.67c0,1.3,0,2.59-.09,3.33h-37.39c.09,9.62,5.18,18.51,16.29,18.51,9.81,0,13.51-6.66,14.44-10.55h6.11c-2.31,8.61-8.79,15.73-20.64,15.73-14.44,0-22.49-10.55-22.49-24.89Zm6.29-4.07h31.1c0-8.42-5.46-15.55-15.18-15.55-9.16,0-15.46,6.76-15.92,15.55Z"/>
    <path class="cls-1" d="M1367.32,438.58h6.01v6.76h.19c2.59-3.89,7.68-7.87,16.1-7.87s15.46,4.72,15.46,15.18v33.13h-6.02v-31.83c0-6.02-2.78-11.2-10.92-11.2-8.98,0-14.81,6.29-14.81,13.23v29.8h-6.01v-47.2Z"/>
    <path class="cls-1" d="M1427.84,441.61v-15.73h6.02v15.73h9.62v5.28h-9.62v29.8c0,5.83,1.39,7.22,6.02,7.22,1.48,0,2.22-.09,3.61-.18v5.09c-1.85,.28-2.96,.37-4.44,.37-6.94,0-11.2-2.31-11.2-12.59v-29.71h-6.94v-5.28h6.94Z"/>
    <path class="cls-1" d="M1481.42,418.94c-6.39,11.2-11.38,23.41-11.38,40.53s5,28.97,11.38,40.16h-5.46c-6.76-9.35-12.68-23.41-12.68-40.16s5.92-31.19,12.68-40.53h5.46Z"/>
    <path class="cls-1" d="M1534.08,475.76c0,8.61-6.85,14.25-18.51,14.25-13.14,0-20.45-7.22-20.73-16.66h6.38c.37,6.48,4.54,11.38,14.44,11.38,9.07,0,12.12-4.16,12.12-8.79,0-6.94-7.03-7.68-13.6-9.25-8.7-2.13-17.49-4.35-17.49-13.51,0-7.68,6.11-12.68,16.75-12.68,12.22,0,18.05,6.57,18.88,14.34h-6.39c-.83-4.17-3.24-9.07-12.49-9.07-6.76,0-10.46,2.59-10.46,7.03,0,5.92,6.29,6.66,13.51,8.51,8.88,2.13,17.58,4.63,17.58,14.44Z"/>
    <path class="cls-1" d="M1548.42,499.64c6.39-11.2,11.38-23.41,11.38-40.53s-5-28.97-11.38-40.16h5.46c6.76,9.35,12.68,23.41,12.68,40.16s-5.92,31.19-12.68,40.53h-5.46Z"/>
    <path class="cls-1" d="M1101.63,641.84v8.05h-6.01v-66.17h6.01v26.56h.19c2.68-4.53,7.68-8.79,15.92-8.79,11.48,0,20.73,9.25,20.73,24.8s-9.25,24.71-20.73,24.71c-8.24,0-13.14-4.07-15.92-9.16h-.19Zm0-15.55c0,11.85,6.29,19.43,15.36,19.43,9.81,0,15.18-8.88,15.18-19.43s-5.37-19.62-15.18-19.62c-9.07,0-15.36,7.68-15.36,19.62Z"/>
    <path class="cls-1" d="M1172.52,646c8.88,0,14.81-6.29,14.81-13.23v-29.8h6.02v47.2h-6.02v-6.66h-.18c-2.59,3.89-7.68,7.77-16.1,7.77s-15.46-4.72-15.46-15.18v-33.13h6.02v31.83c0,6.02,2.68,11.2,10.92,11.2Z"/>
    <path class="cls-1" d="M1219.99,585.48v7.77h-7.77v-7.77h7.77Zm-.83,17.21v47.2h-6.01v-47.2h6.01Z"/>
    <path class="cls-1" d="M1245.35,583.72v66.17h-6.01v-66.17h6.01Z"/>
    <path class="cls-1" d="M1299.76,611.2v-26.93h6.02v66.17h-6.02v-7.68h-.19c-2.78,4.63-7.77,8.88-16.01,8.88-11.48,0-20.73-9.25-20.73-24.8s9.25-24.71,20.82-24.71c8.14,0,13.14,4.07,15.92,9.07h.19Zm0,15.64c0-11.85-6.39-19.43-15.46-19.43-9.81,0-15.18,8.88-15.18,19.43s5.37,19.53,15.18,19.53c9.07,0,15.46-7.59,15.46-19.53Z"/>
    <path class="cls-1" d="M1101.18,759.64l14.34-39.39-6.26-2.28,1.8-4.96,6.26,2.28,2.37-6.52c3.51-9.65,8.13-10.43,14.48-8.12,1.3,.47,2.32,.94,4.13,1.9l-1.74,4.78c-1.53-.66-2.2-1-3.42-1.44-4.26-1.55-5.78-.63-7.77,4.85l-2.41,6.61,8.78,3.2-1.8,4.96-8.78-3.2-14.34,39.39-5.65-2.06Z"/>
    <path class="cls-1" d="M1175.56,750.88c8.35,3.04,16.07-.85,18.44-7.37l10.19-28,5.65,2.06-16.14,44.35-5.65-2.06,2.28-6.26-.17-.06c-3.76,2.77-9.88,4.68-17.79,1.8-8-2.91-12.91-9.72-9.33-19.55l11.33-31.13,5.65,2.06-10.89,29.91c-2.06,5.65-1.31,11.44,6.43,14.26Z"/>
    <path class="cls-1" d="M1258.98,712.23l5.38-14.78,5.65,2.06-5.38,14.78,9.04,3.29-1.8,4.96-9.04-3.29-10.19,28c-1.99,5.48-1.16,7.26,3.18,8.84,1.39,.51,2.12,.67,3.46,1.06l-1.74,4.78c-1.83-.37-2.91-.67-4.3-1.17-6.52-2.37-9.73-6-6.22-15.66l10.16-27.91-6.52-2.37,1.8-4.96,6.52,2.37Z"/>
    <path class="cls-1" d="M1318.26,750.88c8.35,3.04,16.07-.85,18.44-7.37l10.19-28,5.65,2.06-16.14,44.35-5.65-2.06,2.28-6.26-.17-.06c-3.76,2.77-9.88,4.68-17.79,1.8-8-2.91-12.91-9.72-9.33-19.55l11.33-31.13,5.65,2.06-10.89,29.91c-2.06,5.65-1.31,11.44,6.43,14.26Z"/>
    <path class="cls-1" d="M1404.11,716.27l-3.29,9.04,.17,.06c4.29-5.04,9.93-7.81,16.28-5.5,1.57,.57,2.66,1.07,3.73,1.65l-2.03,5.57c-.89-.52-1.82-.96-2.6-1.24-8.09-2.94-16.25,1.37-19.39,9.98l-9.02,24.78-5.65-2.06,16.14-44.35,5.65,2.06Z"/>
    <path class="cls-1" d="M1453.17,727.75c5.16-14.17,16.83-20.27,29.61-15.61,12.78,4.65,16.74,16.24,12.25,28.58-.44,1.22-.89,2.43-1.23,3.1l-35.13-12.79c-3.2,9.08-1.46,19.16,8.98,22.96,9.22,3.35,14.97-1.64,17.17-4.98l5.74,2.09c-5.12,7.3-13.64,11.78-24.77,7.73-13.57-4.94-17.52-17.6-12.62-31.08Zm7.31-1.67l29.22,10.63c2.88-7.91,.19-16.48-8.94-19.8-8.61-3.13-16.83,1.06-20.27,9.17Z"/>
    <path class="cls-1" d="M1568.78,751.4c-2.94,8.09-11.31,11.05-22.27,7.06-12.35-4.49-16.75-13.78-13.78-22.74l6,2.18c-1.87,6.21,.37,12.25,9.67,15.63,8.52,3.1,12.82,.23,14.4-4.12,2.37-6.52-3.98-9.62-9.62-13.35-7.45-4.98-14.95-10.07-11.81-18.68,2.63-7.22,10.07-9.83,20.08-6.19,11.48,4.18,14.71,12.35,12.83,19.93l-6-2.18c.64-4.2,.06-9.63-8.64-12.79-6.35-2.31-10.71-1.14-12.23,3.03-2.03,5.57,3.63,8.41,9.79,12.62,7.62,5.04,14.94,10.36,11.58,19.58Z"/>
  </g>
</svg>